G04 Layer_Physical_Order=2*
G04 Layer_Color=16711680*
%FSAX24Y24*%
%MOIN*%
G70*
G01*
G75*
%ADD11C,0.0300*%
%ADD12C,0.0150*%
%ADD13C,0.0120*%
%ADD16C,0.0560*%
%ADD17R,0.0560X0.0560*%
%ADD18C,0.0920*%
%ADD19O,0.1600X0.1900*%
%ADD20C,0.0400*%
%ADD21C,0.0350*%
%ADD22C,0.0500*%
%ADD23R,0.0394X0.0551*%
%ADD24R,0.0492X0.0591*%
%ADD25R,0.0591X0.0591*%
%ADD26C,0.0100*%
%ADD27C,0.0200*%
%ADD28C,0.0180*%
G36*
X-001008Y032812D02*
X-000826Y032736D01*
X-000663Y032627D01*
X-000523Y032487D01*
X-000414Y032324D01*
X-000338Y032142D01*
X-000300Y031948D01*
Y031850D01*
Y009850D01*
Y009752D01*
X-000338Y009558D01*
X-000414Y009376D01*
X-000523Y009213D01*
X-000663Y009073D01*
X-000826Y008964D01*
X-001008Y008888D01*
X-001202Y008850D01*
X-032684D01*
X-032877Y008888D01*
X-033059Y008964D01*
X-033223Y009073D01*
X-033293Y009143D01*
X-034207Y010057D01*
X-034277Y010127D01*
X-034386Y010291D01*
X-034462Y010473D01*
X-034500Y010666D01*
Y010764D01*
Y031086D01*
Y031184D01*
X-034462Y031377D01*
X-034386Y031559D01*
X-034277Y031723D01*
X-034207Y031793D01*
Y031793D01*
X-033443Y032557D01*
X-033373Y032627D01*
X-033209Y032736D01*
X-033027Y032812D01*
X-032834Y032850D01*
X-026636D01*
X-026613Y032800D01*
X-026670Y032731D01*
X-026726Y032625D01*
X-026761Y032510D01*
X-026768Y032440D01*
X-026160D01*
Y032340D01*
X-026768D01*
X-026761Y032270D01*
X-026726Y032155D01*
X-026670Y032049D01*
X-026593Y031957D01*
X-026528Y031903D01*
X-026526Y031840D01*
X-026572Y031802D01*
X-026645Y031714D01*
X-026698Y031613D01*
X-026732Y031504D01*
X-026743Y031390D01*
X-026732Y031276D01*
X-026698Y031167D01*
X-026645Y031066D01*
X-026572Y030978D01*
X-026484Y030905D01*
X-026383Y030852D01*
X-026274Y030818D01*
X-026160Y030807D01*
X-026046Y030818D01*
X-025937Y030852D01*
X-025836Y030905D01*
X-025748Y030978D01*
X-025691Y031047D01*
X-025682Y031051D01*
X-025638D01*
X-025629Y031047D01*
X-025572Y030978D01*
X-025484Y030905D01*
X-025383Y030852D01*
X-025274Y030818D01*
X-025160Y030807D01*
X-025046Y030818D01*
X-024937Y030852D01*
X-024836Y030905D01*
X-024748Y030978D01*
X-024691Y031047D01*
X-024682Y031051D01*
X-024638D01*
X-024629Y031047D01*
X-024572Y030978D01*
X-024484Y030905D01*
X-024383Y030852D01*
X-024274Y030818D01*
X-024160Y030807D01*
X-024046Y030818D01*
X-023937Y030852D01*
X-023836Y030905D01*
X-023748Y030978D01*
X-023675Y031066D01*
X-023622Y031167D01*
X-023588Y031276D01*
X-023577Y031390D01*
X-023588Y031504D01*
X-023622Y031613D01*
X-023675Y031714D01*
X-023748Y031802D01*
X-023817Y031859D01*
X-023821Y031868D01*
Y031912D01*
X-023817Y031921D01*
X-023748Y031978D01*
X-023745Y031982D01*
X-023701Y032025D01*
X-023616Y032099D01*
X-023580Y032126D01*
X-023546Y032149D01*
X-023515Y032166D01*
X-023488Y032179D01*
X-023464Y032187D01*
X-023445Y032191D01*
X-023445Y032191D01*
X-023422D01*
X-022749Y031518D01*
Y026672D01*
X-022750Y026664D01*
X-022753Y026652D01*
X-022758Y026639D01*
X-022764Y026624D01*
X-022773Y026609D01*
X-022784Y026592D01*
X-022797Y026575D01*
X-022813Y026556D01*
X-022829Y026540D01*
X-022835Y026535D01*
X-022899Y026452D01*
X-022940Y026354D01*
X-022953Y026250D01*
X-022940Y026146D01*
X-022899Y026048D01*
X-022835Y025965D01*
X-022752Y025901D01*
X-022654Y025860D01*
X-022550Y025847D01*
X-022446Y025860D01*
X-022348Y025901D01*
X-022265Y025965D01*
X-022201Y026048D01*
X-022160Y026146D01*
X-022147Y026250D01*
X-022148Y026258D01*
X-022147Y026281D01*
X-022145Y026305D01*
X-022143Y026326D01*
X-022139Y026346D01*
X-022134Y026363D01*
X-022128Y026378D01*
X-022122Y026391D01*
X-022116Y026402D01*
X-022111Y026407D01*
X-021768Y026751D01*
X-019734D01*
X-019726Y026750D01*
X-019718Y026748D01*
X-019711Y026745D01*
X-019704Y026742D01*
X-019698Y026739D01*
X-019692Y026735D01*
X-019686Y026730D01*
X-019680Y026724D01*
X-019678Y026722D01*
X-019611Y026670D01*
X-019534Y026638D01*
X-019450Y026627D01*
X-019366Y026638D01*
X-019289Y026670D01*
X-019222Y026722D01*
X-019170Y026789D01*
X-019138Y026866D01*
X-019127Y026950D01*
X-019138Y027034D01*
X-019170Y027111D01*
X-019222Y027178D01*
X-019289Y027230D01*
X-019366Y027262D01*
X-019450Y027273D01*
X-019534Y027262D01*
X-019611Y027230D01*
X-019678Y027178D01*
X-019680Y027176D01*
X-019686Y027170D01*
X-019692Y027165D01*
X-019698Y027161D01*
X-019704Y027158D01*
X-019711Y027155D01*
X-019718Y027152D01*
X-019726Y027150D01*
X-019734Y027149D01*
X-021850D01*
X-021926Y027134D01*
X-021991Y027091D01*
X-022305Y026776D01*
X-022351Y026795D01*
Y031600D01*
X-022366Y031676D01*
X-022409Y031741D01*
X-023199Y032531D01*
X-023264Y032574D01*
X-023340Y032589D01*
X-023445D01*
X-023445Y032589D01*
X-023464Y032593D01*
X-023488Y032601D01*
X-023515Y032614D01*
X-023546Y032631D01*
X-023580Y032654D01*
X-023616Y032681D01*
X-023701Y032755D01*
X-023745Y032798D01*
X-023746Y032800D01*
X-023744Y032817D01*
X-023732Y032850D01*
X-001202D01*
X-001008Y032812D01*
D02*
G37*
G36*
X-022474Y026664D02*
X-022470Y026640D01*
X-022464Y026616D01*
X-022456Y026593D01*
X-022445Y026569D01*
X-022431Y026545D01*
X-022429Y026542D01*
X-022425Y026542D01*
X-022399Y026550D01*
X-022375Y026559D01*
X-022352Y026570D01*
X-022331Y026582D01*
X-022311Y026597D01*
X-022293Y026613D01*
X-022187Y026507D01*
X-022203Y026489D01*
X-022218Y026469D01*
X-022230Y026448D01*
X-022241Y026425D01*
X-022250Y026401D01*
X-022258Y026375D01*
X-022263Y026347D01*
X-022267Y026317D01*
X-022269Y026286D01*
X-022270Y026253D01*
X-022467Y026450D01*
X-022746D01*
X-022723Y026474D01*
X-022702Y026497D01*
X-022684Y026521D01*
X-022669Y026545D01*
X-022655Y026569D01*
X-022644Y026593D01*
X-022636Y026616D01*
X-022630Y026640D01*
X-022626Y026664D01*
X-022625Y026688D01*
X-022475D01*
X-022474Y026664D01*
D02*
G37*
G36*
X-007649Y007159D02*
X-007644Y007101D01*
X-007637Y007049D01*
X-007626Y007004D01*
X-007613Y006967D01*
X-007596Y006936D01*
X-007577Y006912D01*
X-007554Y006894D01*
X-007529Y006884D01*
X-007500Y006881D01*
X-008100D01*
X-008071Y006884D01*
X-008046Y006894D01*
X-008023Y006912D01*
X-008004Y006936D01*
X-007987Y006967D01*
X-007974Y007004D01*
X-007963Y007049D01*
X-007956Y007101D01*
X-007951Y007159D01*
X-007950Y007225D01*
X-007650D01*
X-007649Y007159D01*
D02*
G37*
G36*
X-019593Y026810D02*
X-019606Y026822D01*
X-019620Y026833D01*
X-019634Y026843D01*
X-019649Y026852D01*
X-019665Y026859D01*
X-019682Y026865D01*
X-019699Y026869D01*
X-019717Y026872D01*
X-019736Y026874D01*
X-019755Y026875D01*
Y027025D01*
X-019736Y027026D01*
X-019717Y027028D01*
X-019699Y027031D01*
X-019682Y027035D01*
X-019665Y027041D01*
X-019649Y027048D01*
X-019634Y027057D01*
X-019620Y027067D01*
X-019606Y027078D01*
X-019593Y027090D01*
Y026810D01*
D02*
G37*
G36*
X-023784Y032665D02*
X-023694Y032586D01*
X-023651Y032554D01*
X-023610Y032527D01*
X-023571Y032505D01*
X-023533Y032487D01*
X-023497Y032475D01*
X-023463Y032467D01*
X-023430Y032465D01*
Y032315D01*
X-023463Y032313D01*
X-023497Y032305D01*
X-023533Y032293D01*
X-023571Y032275D01*
X-023610Y032253D01*
X-023651Y032226D01*
X-023694Y032194D01*
X-023784Y032115D01*
X-023831Y032068D01*
Y032712D01*
X-023784Y032665D01*
D02*
G37*
%LPC*%
G36*
X-022550Y022653D02*
X-022654Y022640D01*
X-022752Y022599D01*
X-022835Y022535D01*
X-022899Y022452D01*
X-022940Y022354D01*
X-022953Y022250D01*
X-022940Y022146D01*
X-022899Y022048D01*
X-022835Y021965D01*
X-022752Y021901D01*
X-022654Y021860D01*
X-022550Y021847D01*
X-022446Y021860D01*
X-022348Y021901D01*
X-022265Y021965D01*
X-022201Y022048D01*
X-022160Y022146D01*
X-022147Y022250D01*
X-022160Y022354D01*
X-022201Y022452D01*
X-022265Y022535D01*
X-022348Y022599D01*
X-022446Y022640D01*
X-022550Y022653D01*
D02*
G37*
G36*
X-025000Y016308D02*
Y015750D01*
X-024442D01*
X-024449Y015820D01*
X-024484Y015935D01*
X-024540Y016041D01*
X-024617Y016133D01*
X-024709Y016210D01*
X-024815Y016266D01*
X-024930Y016301D01*
X-025000Y016308D01*
D02*
G37*
G36*
X-021500Y021677D02*
Y021300D01*
X-021123D01*
X-021131Y021362D01*
X-021174Y021467D01*
X-021243Y021557D01*
X-021333Y021626D01*
X-021438Y021669D01*
X-021500Y021677D01*
D02*
G37*
G36*
X-021600D02*
X-021662Y021669D01*
X-021767Y021626D01*
X-021857Y021557D01*
X-021926Y021467D01*
X-021969Y021362D01*
X-021977Y021300D01*
X-021600D01*
Y021677D01*
D02*
G37*
G36*
X-002524Y021665D02*
X-003354D01*
Y021449D01*
X-003884D01*
Y021665D01*
X-004616D01*
Y020835D01*
X-003884D01*
Y021051D01*
X-003354D01*
Y020835D01*
X-002524D01*
Y021665D01*
D02*
G37*
G36*
X-004681Y022950D02*
X-005027D01*
Y022555D01*
X-004681D01*
Y022950D01*
D02*
G37*
G36*
X-006879Y017709D02*
X-007176D01*
Y017333D01*
X-006879D01*
Y017709D01*
D02*
G37*
G36*
X-005127Y022950D02*
X-005473D01*
Y022555D01*
X-005127D01*
Y022950D01*
D02*
G37*
G36*
X-021600Y019680D02*
X-021980D01*
Y019300D01*
X-021600D01*
Y019680D01*
D02*
G37*
G36*
X-004711Y019915D02*
X-005443D01*
Y019684D01*
X-006400D01*
X-006470Y019670D01*
X-006530Y019630D01*
X-007730Y018430D01*
X-007770Y018370D01*
X-007784Y018300D01*
Y017679D01*
X-008291D01*
Y016887D01*
X-008207D01*
Y015665D01*
X-008389D01*
Y014835D01*
X-007657D01*
Y015665D01*
X-007840D01*
Y016021D01*
X-007283D01*
Y016813D01*
X-007283D01*
X-007276Y016839D01*
Y017283D01*
Y017709D01*
X-007416D01*
Y018224D01*
X-006324Y019316D01*
X-005443D01*
Y019085D01*
X-004711D01*
Y019915D01*
D02*
G37*
G36*
X-004681Y021695D02*
X-005027D01*
Y021300D01*
X-004681D01*
Y021695D01*
D02*
G37*
G36*
X-005127Y021200D02*
X-005473D01*
Y020805D01*
X-005127D01*
Y021200D01*
D02*
G37*
G36*
X-004681D02*
X-005027D01*
Y020805D01*
X-004681D01*
Y021200D01*
D02*
G37*
G36*
X-021550Y020653D02*
X-021654Y020640D01*
X-021752Y020599D01*
X-021835Y020535D01*
X-021899Y020452D01*
X-021940Y020354D01*
X-021953Y020250D01*
X-021940Y020146D01*
X-021899Y020048D01*
X-021835Y019965D01*
X-021752Y019901D01*
X-021654Y019860D01*
X-021550Y019847D01*
X-021446Y019860D01*
X-021348Y019901D01*
X-021265Y019965D01*
X-021201Y020048D01*
X-021160Y020146D01*
X-021147Y020250D01*
X-021160Y020354D01*
X-021201Y020452D01*
X-021265Y020535D01*
X-021348Y020599D01*
X-021446Y020640D01*
X-021550Y020653D01*
D02*
G37*
G36*
X-006879Y017233D02*
X-007176D01*
Y016857D01*
X-006879D01*
Y017233D01*
D02*
G37*
G36*
X-022550Y020653D02*
X-022654Y020640D01*
X-022752Y020599D01*
X-022835Y020535D01*
X-022899Y020452D01*
X-022940Y020354D01*
X-022953Y020250D01*
X-022940Y020146D01*
X-022899Y020048D01*
X-022835Y019965D01*
X-022752Y019901D01*
X-022654Y019860D01*
X-022550Y019847D01*
X-022446Y019860D01*
X-022348Y019901D01*
X-022265Y019965D01*
X-022201Y020048D01*
X-022160Y020146D01*
X-022147Y020250D01*
X-022160Y020354D01*
X-022201Y020452D01*
X-022265Y020535D01*
X-022348Y020599D01*
X-022446Y020640D01*
X-022550Y020653D01*
D02*
G37*
G36*
X-021120Y019680D02*
X-021500D01*
Y019300D01*
X-021120D01*
Y019680D01*
D02*
G37*
G36*
X-005127Y021695D02*
X-005473D01*
Y021300D01*
X-005127D01*
Y021695D01*
D02*
G37*
G36*
X-022550Y021653D02*
X-022654Y021640D01*
X-022752Y021599D01*
X-022835Y021535D01*
X-022899Y021452D01*
X-022940Y021354D01*
X-022953Y021250D01*
X-022940Y021146D01*
X-022899Y021048D01*
X-022835Y020965D01*
X-022752Y020901D01*
X-022654Y020860D01*
X-022550Y020847D01*
X-022446Y020860D01*
X-022348Y020901D01*
X-022265Y020965D01*
X-022201Y021048D01*
X-022160Y021146D01*
X-022147Y021250D01*
X-022160Y021354D01*
X-022201Y021452D01*
X-022265Y021535D01*
X-022348Y021599D01*
X-022446Y021640D01*
X-022550Y021653D01*
D02*
G37*
G36*
X-021600Y021200D02*
X-021977D01*
X-021969Y021138D01*
X-021926Y021033D01*
X-021857Y020943D01*
X-021767Y020874D01*
X-021662Y020831D01*
X-021600Y020823D01*
Y021200D01*
D02*
G37*
G36*
X-021123D02*
X-021500D01*
Y020823D01*
X-021438Y020831D01*
X-021333Y020874D01*
X-021243Y020943D01*
X-021174Y021033D01*
X-021131Y021138D01*
X-021123Y021200D01*
D02*
G37*
G36*
X-022550Y023653D02*
X-022654Y023640D01*
X-022752Y023599D01*
X-022835Y023535D01*
X-022899Y023452D01*
X-022940Y023354D01*
X-022953Y023250D01*
X-022940Y023146D01*
X-022899Y023048D01*
X-022835Y022965D01*
X-022752Y022901D01*
X-022654Y022860D01*
X-022550Y022847D01*
X-022446Y022860D01*
X-022348Y022901D01*
X-022265Y022965D01*
X-022201Y023048D01*
X-022160Y023146D01*
X-022147Y023250D01*
X-022160Y023354D01*
X-022201Y023452D01*
X-022265Y023535D01*
X-022348Y023599D01*
X-022446Y023640D01*
X-022550Y023653D01*
D02*
G37*
G36*
X-004681Y025195D02*
X-005027D01*
Y024800D01*
X-004681D01*
Y025195D01*
D02*
G37*
G36*
X-032050Y011369D02*
X-032197Y011354D01*
X-032338Y011311D01*
X-032469Y011242D01*
X-032583Y011148D01*
X-032677Y011034D01*
X-032746Y010903D01*
X-032789Y010762D01*
X-032804Y010615D01*
X-032789Y010468D01*
X-032746Y010327D01*
X-032677Y010196D01*
X-032583Y010082D01*
X-032469Y009988D01*
X-032338Y009919D01*
X-032197Y009876D01*
X-032050Y009861D01*
X-031903Y009876D01*
X-031762Y009919D01*
X-031631Y009988D01*
X-031517Y010082D01*
X-031423Y010196D01*
X-031354Y010327D01*
X-031311Y010468D01*
X-031296Y010615D01*
X-031311Y010762D01*
X-031354Y010903D01*
X-031423Y011034D01*
X-031517Y011148D01*
X-031631Y011242D01*
X-031762Y011311D01*
X-031903Y011354D01*
X-032050Y011369D01*
D02*
G37*
G36*
X-005127Y025195D02*
X-005473D01*
Y024800D01*
X-005127D01*
Y025195D01*
D02*
G37*
G36*
X-012100Y017423D02*
X-012184Y017412D01*
X-012261Y017380D01*
X-012328Y017328D01*
X-012380Y017261D01*
X-012412Y017184D01*
X-012423Y017100D01*
X-012412Y017016D01*
X-012380Y016939D01*
X-012328Y016872D01*
X-012261Y016820D01*
X-012184Y016788D01*
X-012100Y016777D01*
X-012097Y016778D01*
X-012082Y016777D01*
X-012069Y016776D01*
X-012058Y016775D01*
X-012048Y016772D01*
X-012039Y016770D01*
X-012032Y016767D01*
X-012025Y016763D01*
X-012020Y016760D01*
X-012019Y016759D01*
X-009510Y014250D01*
X-009450Y014210D01*
X-009380Y014196D01*
X-007560D01*
X-007490Y014210D01*
X-007430Y014250D01*
X-007067Y014614D01*
X-007027Y014673D01*
X-007013Y014744D01*
Y014835D01*
X-006830D01*
Y015665D01*
X-007563D01*
Y014835D01*
X-007436D01*
X-007415Y014785D01*
X-007636Y014564D01*
X-009304D01*
X-011759Y017019D01*
X-011760Y017020D01*
X-011763Y017025D01*
X-011767Y017032D01*
X-011770Y017039D01*
X-011772Y017048D01*
X-011775Y017058D01*
X-011776Y017069D01*
X-011777Y017082D01*
X-011778Y017097D01*
X-011777Y017100D01*
X-011788Y017184D01*
X-011820Y017261D01*
X-011872Y017328D01*
X-011939Y017380D01*
X-012016Y017412D01*
X-012100Y017423D01*
D02*
G37*
G36*
X-016050Y011369D02*
X-016197Y011354D01*
X-016338Y011311D01*
X-016469Y011242D01*
X-016583Y011148D01*
X-016677Y011034D01*
X-016746Y010903D01*
X-016789Y010762D01*
X-016804Y010615D01*
X-016789Y010468D01*
X-016746Y010327D01*
X-016677Y010196D01*
X-016583Y010082D01*
X-016469Y009988D01*
X-016338Y009919D01*
X-016197Y009876D01*
X-016050Y009861D01*
X-015903Y009876D01*
X-015762Y009919D01*
X-015631Y009988D01*
X-015517Y010082D01*
X-015423Y010196D01*
X-015354Y010327D01*
X-015311Y010468D01*
X-015296Y010615D01*
X-015311Y010762D01*
X-015354Y010903D01*
X-015423Y011034D01*
X-015517Y011148D01*
X-015631Y011242D01*
X-015762Y011311D01*
X-015903Y011354D01*
X-016050Y011369D01*
D02*
G37*
G36*
X-032050Y030869D02*
X-032197Y030854D01*
X-032338Y030811D01*
X-032469Y030742D01*
X-032583Y030648D01*
X-032677Y030534D01*
X-032746Y030403D01*
X-032789Y030262D01*
X-032804Y030115D01*
X-032789Y029968D01*
X-032746Y029827D01*
X-032677Y029696D01*
X-032583Y029582D01*
X-032469Y029488D01*
X-032338Y029419D01*
X-032197Y029376D01*
X-032050Y029361D01*
X-031903Y029376D01*
X-031762Y029419D01*
X-031631Y029488D01*
X-031517Y029582D01*
X-031423Y029696D01*
X-031354Y029827D01*
X-031311Y029968D01*
X-031296Y030115D01*
X-031311Y030262D01*
X-031354Y030403D01*
X-031423Y030534D01*
X-031517Y030648D01*
X-031631Y030742D01*
X-031762Y030811D01*
X-031903Y030854D01*
X-032050Y030869D01*
D02*
G37*
G36*
X-016050D02*
X-016197Y030854D01*
X-016338Y030811D01*
X-016469Y030742D01*
X-016583Y030648D01*
X-016677Y030534D01*
X-016746Y030403D01*
X-016789Y030262D01*
X-016804Y030115D01*
X-016789Y029968D01*
X-016746Y029827D01*
X-016677Y029696D01*
X-016583Y029582D01*
X-016469Y029488D01*
X-016338Y029419D01*
X-016197Y029376D01*
X-016050Y029361D01*
X-015903Y029376D01*
X-015762Y029419D01*
X-015631Y029488D01*
X-015517Y029582D01*
X-015423Y029696D01*
X-015354Y029827D01*
X-015311Y029968D01*
X-015296Y030115D01*
X-015311Y030262D01*
X-015354Y030403D01*
X-015423Y030534D01*
X-015517Y030648D01*
X-015631Y030742D01*
X-015762Y030811D01*
X-015903Y030854D01*
X-016050Y030869D01*
D02*
G37*
G36*
X-021550Y026653D02*
X-021654Y026640D01*
X-021752Y026599D01*
X-021835Y026535D01*
X-021899Y026452D01*
X-021940Y026354D01*
X-021953Y026250D01*
X-021940Y026146D01*
X-021899Y026048D01*
X-021835Y025965D01*
X-021752Y025901D01*
X-021654Y025860D01*
X-021550Y025847D01*
X-021446Y025860D01*
X-021348Y025901D01*
X-021265Y025965D01*
X-021201Y026048D01*
X-021160Y026146D01*
X-021147Y026250D01*
X-021160Y026354D01*
X-021201Y026452D01*
X-021265Y026535D01*
X-021348Y026599D01*
X-021446Y026640D01*
X-021550Y026653D01*
D02*
G37*
G36*
X-002524Y025165D02*
X-003354D01*
Y024949D01*
X-003884D01*
Y025165D01*
X-004616D01*
Y024335D01*
X-003884D01*
Y024551D01*
X-003354D01*
Y024335D01*
X-002524D01*
Y025165D01*
D02*
G37*
G36*
X-001430Y025954D02*
X-021070D01*
X-021156Y025937D01*
X-021229Y025889D01*
X-021425Y025692D01*
X-021430Y025689D01*
X-021442Y025680D01*
X-021456Y025672D01*
X-021469Y025666D01*
X-021483Y025661D01*
X-021497Y025657D01*
X-021512Y025655D01*
X-021529Y025653D01*
X-021543Y025652D01*
X-021550Y025653D01*
X-021654Y025640D01*
X-021752Y025599D01*
X-021835Y025535D01*
X-021899Y025452D01*
X-021940Y025354D01*
X-021953Y025250D01*
X-021940Y025146D01*
X-021899Y025048D01*
X-021835Y024965D01*
X-021752Y024901D01*
X-021654Y024860D01*
X-021550Y024847D01*
X-021446Y024860D01*
X-021348Y024901D01*
X-021265Y024965D01*
X-021201Y025048D01*
X-021160Y025146D01*
X-021147Y025250D01*
X-021147Y025257D01*
X-021147Y025271D01*
X-021145Y025288D01*
X-021143Y025303D01*
X-021139Y025317D01*
X-021134Y025331D01*
X-021128Y025344D01*
X-021120Y025358D01*
X-021111Y025371D01*
X-021108Y025375D01*
X-020977Y025506D01*
X-001523D01*
X-001229Y025211D01*
X-001248Y025165D01*
X-001976D01*
Y024667D01*
X-001991Y024645D01*
X-002039Y024589D01*
X-002409Y024220D01*
X-002457Y024147D01*
X-002474Y024061D01*
Y023417D01*
X-002524Y023415D01*
Y023415D01*
X-003354D01*
Y023199D01*
X-003884D01*
Y023415D01*
X-004616D01*
Y022585D01*
X-003884D01*
Y022801D01*
X-003354D01*
Y022585D01*
X-002598D01*
X-002579Y022539D01*
X-002793Y022324D01*
X-006853D01*
X-006854Y022324D01*
X-006868Y022327D01*
X-006880Y022330D01*
X-006892Y022333D01*
X-006902Y022338D01*
X-006911Y022342D01*
X-006919Y022348D01*
X-006927Y022354D01*
X-006933Y022360D01*
X-006936Y022364D01*
X-007013Y022423D01*
X-007103Y022460D01*
X-007200Y022473D01*
X-007297Y022460D01*
X-007387Y022423D01*
X-007464Y022364D01*
X-007467Y022360D01*
X-007473Y022354D01*
X-007481Y022348D01*
X-007489Y022342D01*
X-007498Y022338D01*
X-007508Y022333D01*
X-007520Y022330D01*
X-007532Y022327D01*
X-007546Y022324D01*
X-007547Y022324D01*
X-021134D01*
X-021138Y022325D01*
X-021148Y022327D01*
X-021154Y022329D01*
X-021155Y022330D01*
X-021158Y022342D01*
X-021159Y022342D01*
X-021160Y022354D01*
X-021201Y022452D01*
X-021265Y022535D01*
X-021348Y022599D01*
X-021446Y022640D01*
X-021550Y022653D01*
X-021654Y022640D01*
X-021752Y022599D01*
X-021835Y022535D01*
X-021899Y022452D01*
X-021940Y022354D01*
X-021953Y022250D01*
X-021940Y022146D01*
X-021899Y022048D01*
X-021835Y021965D01*
X-021752Y021901D01*
X-021654Y021860D01*
X-021550Y021847D01*
X-021446Y021860D01*
X-021437Y021864D01*
X-021224Y021876D01*
X-007547D01*
X-007546Y021876D01*
X-007532Y021873D01*
X-007520Y021870D01*
X-007508Y021867D01*
X-007498Y021862D01*
X-007489Y021858D01*
X-007481Y021852D01*
X-007473Y021846D01*
X-007467Y021840D01*
X-007464Y021836D01*
X-007387Y021777D01*
X-007297Y021740D01*
X-007200Y021727D01*
X-007103Y021740D01*
X-007013Y021777D01*
X-006936Y021836D01*
X-006933Y021840D01*
X-006927Y021846D01*
X-006919Y021852D01*
X-006911Y021858D01*
X-006902Y021862D01*
X-006892Y021867D01*
X-006880Y021870D01*
X-006868Y021873D01*
X-006854Y021876D01*
X-006853Y021876D01*
X-002700D01*
X-002614Y021893D01*
X-002541Y021941D01*
X-002091Y022391D01*
X-002043Y022464D01*
X-002026Y022550D01*
Y022583D01*
X-001976Y022585D01*
Y022585D01*
X-001461D01*
X-001445Y022574D01*
X-001395Y022531D01*
X-001114Y022250D01*
Y021702D01*
X-001146Y021665D01*
X-001976D01*
Y021083D01*
X-001992Y021064D01*
X-002423Y020634D01*
X-002460Y020577D01*
X-002473Y020511D01*
Y019220D01*
X-002474Y019220D01*
X-002524Y019246D01*
Y019915D01*
X-003354D01*
Y019699D01*
X-003884D01*
Y019915D01*
X-004616D01*
Y019085D01*
X-003884D01*
Y019301D01*
X-003354D01*
Y019085D01*
X-002626D01*
X-002607Y019039D01*
X-002872Y018773D01*
X-004800D01*
X-004866Y018760D01*
X-004923Y018723D01*
X-004923Y018723D01*
X-005623Y018023D01*
X-005660Y017966D01*
X-005673Y017900D01*
Y017629D01*
X-006191D01*
Y016837D01*
X-006047D01*
Y016037D01*
X-006034Y015971D01*
X-005997Y015915D01*
X-005793Y015711D01*
X-005812Y015665D01*
X-006279D01*
Y014835D01*
X-006087D01*
Y014658D01*
X-006872Y013873D01*
X-024988D01*
X-025877Y014762D01*
Y014971D01*
X-025876Y014974D01*
X-025873Y014989D01*
X-025864Y015010D01*
X-025850Y015037D01*
X-025830Y015069D01*
X-025806Y015103D01*
X-025690Y015236D01*
X-025642Y015285D01*
X-025638Y015288D01*
X-025600Y015334D01*
X-025537Y015332D01*
X-025483Y015267D01*
X-025391Y015190D01*
X-025285Y015134D01*
X-025170Y015099D01*
X-025100Y015092D01*
Y015700D01*
Y016308D01*
X-025170Y016301D01*
X-025285Y016266D01*
X-025391Y016210D01*
X-025483Y016133D01*
X-025537Y016068D01*
X-025600Y016066D01*
X-025638Y016112D01*
X-025642Y016115D01*
X-025685Y016159D01*
X-025759Y016244D01*
X-025786Y016280D01*
X-025809Y016314D01*
X-025826Y016345D01*
X-025839Y016372D01*
X-025847Y016396D01*
X-025851Y016415D01*
X-025851Y016415D01*
Y021668D01*
X-022707Y024811D01*
X-022702Y024816D01*
X-022691Y024822D01*
X-022678Y024828D01*
X-022663Y024834D01*
X-022646Y024839D01*
X-022626Y024843D01*
X-022605Y024845D01*
X-022581Y024847D01*
X-022558Y024848D01*
X-022550Y024847D01*
X-022446Y024860D01*
X-022348Y024901D01*
X-022265Y024965D01*
X-022201Y025048D01*
X-022160Y025146D01*
X-022147Y025250D01*
X-022160Y025354D01*
X-022201Y025452D01*
X-022265Y025535D01*
X-022348Y025599D01*
X-022446Y025640D01*
X-022550Y025653D01*
X-022654Y025640D01*
X-022752Y025599D01*
X-022835Y025535D01*
X-022899Y025452D01*
X-022940Y025354D01*
X-022953Y025250D01*
X-022952Y025242D01*
X-022953Y025219D01*
X-022955Y025195D01*
X-022957Y025174D01*
X-022961Y025154D01*
X-022966Y025137D01*
X-022972Y025122D01*
X-022978Y025109D01*
X-022984Y025098D01*
X-022989Y025093D01*
X-026191Y021891D01*
X-026234Y021826D01*
X-026249Y021750D01*
Y016415D01*
X-026249Y016415D01*
X-026253Y016396D01*
X-026261Y016372D01*
X-026274Y016345D01*
X-026291Y016314D01*
X-026314Y016280D01*
X-026341Y016244D01*
X-026415Y016159D01*
X-026458Y016115D01*
X-026462Y016112D01*
X-026535Y016024D01*
X-026588Y015923D01*
X-026622Y015814D01*
X-026633Y015700D01*
X-026622Y015586D01*
X-026588Y015477D01*
X-026535Y015376D01*
X-026462Y015288D01*
X-026458Y015285D01*
X-026408Y015235D01*
X-026366Y015189D01*
X-026295Y015104D01*
X-026270Y015069D01*
X-026250Y015037D01*
X-026236Y015010D01*
X-026227Y014989D01*
X-026224Y014974D01*
X-026223Y014971D01*
Y014690D01*
X-026210Y014624D01*
X-026173Y014567D01*
X-025183Y013577D01*
X-025126Y013540D01*
X-025060Y013527D01*
X-006800D01*
X-006734Y013540D01*
X-006677Y013577D01*
X-005791Y014464D01*
X-005791Y014464D01*
X-005753Y014520D01*
X-005740Y014587D01*
X-005740Y014587D01*
Y014835D01*
X-005547D01*
Y015400D01*
X-005501Y015419D01*
X-005469Y015387D01*
X-005463Y015381D01*
X-005455Y015370D01*
X-005453Y015367D01*
Y014835D01*
X-004721D01*
Y015665D01*
X-005255D01*
X-005270Y015678D01*
X-005517Y015925D01*
X-005497Y015971D01*
X-005183D01*
Y016763D01*
X-005327D01*
Y016837D01*
X-004809D01*
Y017017D01*
X-004800Y017018D01*
X-004789Y017019D01*
X-003387D01*
X-003305Y017035D01*
X-003236Y017082D01*
X-001410Y018908D01*
X-001363Y018977D01*
X-001347Y019059D01*
Y019085D01*
X-001146D01*
Y019534D01*
X-001145Y019540D01*
X-001146Y019545D01*
Y019600D01*
X-001134Y019616D01*
X-001092Y019666D01*
X-000749Y020010D01*
X-000702Y020079D01*
X-000686Y020161D01*
Y022339D01*
X-000702Y022421D01*
X-000749Y022490D01*
X-001084Y022826D01*
X-001113Y022857D01*
X-001134Y022883D01*
X-001146Y022900D01*
Y023005D01*
X-001145Y023011D01*
X-001146Y023017D01*
Y023083D01*
X-001130Y023105D01*
X-001082Y023161D01*
X-000791Y023452D01*
X-000743Y023525D01*
X-000726Y023611D01*
Y025250D01*
X-000743Y025336D01*
X-000791Y025409D01*
X-001271Y025889D01*
X-001344Y025937D01*
X-001430Y025954D01*
D02*
G37*
G36*
X-021600Y019200D02*
X-021980D01*
Y018820D01*
X-021600D01*
Y019200D01*
D02*
G37*
G36*
X-005127Y023445D02*
X-005473D01*
Y023050D01*
X-005127D01*
Y023445D01*
D02*
G37*
G36*
X-004681D02*
X-005027D01*
Y023050D01*
X-004681D01*
Y023445D01*
D02*
G37*
G36*
X-021120Y019200D02*
X-021500D01*
Y018820D01*
X-021120D01*
Y019200D01*
D02*
G37*
G36*
X-021550Y023653D02*
X-021654Y023640D01*
X-021752Y023599D01*
X-021835Y023535D01*
X-021899Y023452D01*
X-021940Y023354D01*
X-021953Y023250D01*
X-021940Y023146D01*
X-021899Y023048D01*
X-021835Y022965D01*
X-021752Y022901D01*
X-021654Y022860D01*
X-021550Y022847D01*
X-021446Y022860D01*
X-021348Y022901D01*
X-021265Y022965D01*
X-021201Y023048D01*
X-021160Y023146D01*
X-021147Y023250D01*
X-021160Y023354D01*
X-021201Y023452D01*
X-021265Y023535D01*
X-021348Y023599D01*
X-021446Y023640D01*
X-021550Y023653D01*
D02*
G37*
G36*
X-024442Y015650D02*
X-025000D01*
Y015092D01*
X-024930Y015099D01*
X-024815Y015134D01*
X-024709Y015190D01*
X-024617Y015267D01*
X-024540Y015359D01*
X-024484Y015465D01*
X-024449Y015580D01*
X-024442Y015650D01*
D02*
G37*
G36*
X-022550Y019653D02*
X-022654Y019640D01*
X-022752Y019599D01*
X-022835Y019535D01*
X-022899Y019452D01*
X-022940Y019354D01*
X-022953Y019250D01*
X-022940Y019146D01*
X-022899Y019048D01*
X-022835Y018965D01*
X-022752Y018901D01*
X-022654Y018860D01*
X-022550Y018847D01*
X-022446Y018860D01*
X-022348Y018901D01*
X-022265Y018965D01*
X-022201Y019048D01*
X-022160Y019146D01*
X-022147Y019250D01*
X-022160Y019354D01*
X-022201Y019452D01*
X-022265Y019535D01*
X-022348Y019599D01*
X-022446Y019640D01*
X-022550Y019653D01*
D02*
G37*
G36*
X-004681Y024700D02*
X-005027D01*
Y024305D01*
X-004681D01*
Y024700D01*
D02*
G37*
G36*
X-005127D02*
X-005473D01*
Y024305D01*
X-005127D01*
Y024700D01*
D02*
G37*
G36*
X-022550Y024653D02*
X-022654Y024640D01*
X-022752Y024599D01*
X-022835Y024535D01*
X-022899Y024452D01*
X-022940Y024354D01*
X-022953Y024250D01*
X-022940Y024146D01*
X-022899Y024048D01*
X-022835Y023965D01*
X-022752Y023901D01*
X-022654Y023860D01*
X-022550Y023847D01*
X-022446Y023860D01*
X-022348Y023901D01*
X-022265Y023965D01*
X-022201Y024048D01*
X-022160Y024146D01*
X-022147Y024250D01*
X-022160Y024354D01*
X-022201Y024452D01*
X-022265Y024535D01*
X-022348Y024599D01*
X-022446Y024640D01*
X-022550Y024653D01*
D02*
G37*
G36*
X-021550D02*
X-021654Y024640D01*
X-021752Y024599D01*
X-021835Y024535D01*
X-021899Y024452D01*
X-021940Y024354D01*
X-021953Y024250D01*
X-021940Y024146D01*
X-021899Y024048D01*
X-021835Y023965D01*
X-021752Y023901D01*
X-021654Y023860D01*
X-021550Y023847D01*
X-021446Y023860D01*
X-021348Y023901D01*
X-021265Y023965D01*
X-021201Y024048D01*
X-021160Y024146D01*
X-021147Y024250D01*
X-021160Y024354D01*
X-021201Y024452D01*
X-021265Y024535D01*
X-021348Y024599D01*
X-021446Y024640D01*
X-021550Y024653D01*
D02*
G37*
%LPD*%
G36*
X-004004Y021386D02*
X-003999Y021373D01*
X-003992Y021362D01*
X-003981Y021352D01*
X-003968Y021344D01*
X-003951Y021337D01*
X-003932Y021332D01*
X-003909Y021328D01*
X-003884Y021326D01*
X-003855Y021325D01*
Y021175D01*
X-003884Y021174D01*
X-003909Y021172D01*
X-003932Y021168D01*
X-003951Y021163D01*
X-003968Y021156D01*
X-003981Y021148D01*
X-003992Y021138D01*
X-003999Y021127D01*
X-004004Y021114D01*
X-004005Y021100D01*
Y021400D01*
X-004004Y021386D01*
D02*
G37*
G36*
X-003232Y021100D02*
X-003233Y021114D01*
X-003238Y021127D01*
X-003245Y021138D01*
X-003256Y021148D01*
X-003270Y021156D01*
X-003286Y021163D01*
X-003306Y021168D01*
X-003329Y021172D01*
X-003354Y021174D01*
X-003383Y021175D01*
Y021325D01*
X-003354Y021326D01*
X-003329Y021328D01*
X-003306Y021332D01*
X-003286Y021337D01*
X-003270Y021344D01*
X-003256Y021352D01*
X-003245Y021362D01*
X-003238Y021373D01*
X-003233Y021386D01*
X-003232Y021400D01*
Y021100D01*
D02*
G37*
G36*
X-007915Y017009D02*
X-007925Y017005D01*
X-007934Y016999D01*
X-007942Y016990D01*
X-007948Y016980D01*
X-007954Y016966D01*
X-007958Y016950D01*
X-007961Y016932D01*
X-007963Y016912D01*
X-007963Y016889D01*
X-008083D01*
X-008084Y016912D01*
X-008086Y016932D01*
X-008089Y016950D01*
X-008093Y016966D01*
X-008098Y016980D01*
X-008105Y016990D01*
X-008113Y016999D01*
X-008122Y017005D01*
X-008132Y017009D01*
X-008143Y017010D01*
X-007903D01*
X-007915Y017009D01*
D02*
G37*
G36*
X-007539Y016789D02*
X-007538Y016768D01*
X-007535Y016750D01*
X-007530Y016735D01*
X-007525Y016721D01*
X-007518Y016711D01*
X-007511Y016702D01*
X-007502Y016696D01*
X-007491Y016693D01*
X-007480Y016691D01*
X-007720D01*
X-007709Y016693D01*
X-007698Y016696D01*
X-007689Y016702D01*
X-007682Y016711D01*
X-007675Y016721D01*
X-007670Y016735D01*
X-007665Y016750D01*
X-007662Y016768D01*
X-007661Y016789D01*
X-007660Y016811D01*
X-007540D01*
X-007539Y016789D01*
D02*
G37*
G36*
X-007963Y015641D02*
X-007961Y015620D01*
X-007958Y015602D01*
X-007954Y015587D01*
X-007948Y015573D01*
X-007942Y015562D01*
X-007934Y015554D01*
X-007925Y015548D01*
X-007915Y015544D01*
X-007903Y015543D01*
X-008143D01*
X-008132Y015544D01*
X-008122Y015548D01*
X-008113Y015554D01*
X-008105Y015562D01*
X-008098Y015573D01*
X-008093Y015587D01*
X-008089Y015602D01*
X-008086Y015620D01*
X-008084Y015641D01*
X-008083Y015664D01*
X-007963D01*
X-007963Y015641D01*
D02*
G37*
G36*
X-005320Y019380D02*
X-005322Y019391D01*
X-005325Y019402D01*
X-005331Y019411D01*
X-005340Y019418D01*
X-005351Y019425D01*
X-005364Y019430D01*
X-005380Y019435D01*
X-005398Y019438D01*
X-005419Y019439D01*
X-005442Y019440D01*
Y019560D01*
X-005419Y019561D01*
X-005398Y019562D01*
X-005380Y019565D01*
X-005364Y019570D01*
X-005351Y019575D01*
X-005340Y019582D01*
X-005331Y019589D01*
X-005325Y019598D01*
X-005322Y019609D01*
X-005320Y019620D01*
Y019380D01*
D02*
G37*
G36*
X-007088Y014956D02*
X-007098Y014952D01*
X-007107Y014946D01*
X-007115Y014938D01*
X-007121Y014927D01*
X-007127Y014913D01*
X-007131Y014898D01*
X-007134Y014880D01*
X-007136Y014859D01*
X-007136Y014836D01*
X-007256D01*
X-007257Y014859D01*
X-007259Y014880D01*
X-007262Y014898D01*
X-007266Y014913D01*
X-007271Y014927D01*
X-007278Y014938D01*
X-007286Y014946D01*
X-007295Y014952D01*
X-007305Y014956D01*
X-007316Y014957D01*
X-007076D01*
X-007088Y014956D01*
D02*
G37*
G36*
X-011900Y017076D02*
X-011898Y017055D01*
X-011895Y017035D01*
X-011891Y017016D01*
X-011885Y016998D01*
X-011878Y016981D01*
X-011870Y016965D01*
X-011861Y016950D01*
X-011850Y016936D01*
X-011838Y016923D01*
X-011923Y016838D01*
X-011936Y016850D01*
X-011950Y016861D01*
X-011965Y016870D01*
X-011981Y016878D01*
X-011998Y016885D01*
X-012016Y016891D01*
X-012035Y016895D01*
X-012055Y016898D01*
X-012076Y016900D01*
X-012098Y016900D01*
X-011900Y017098D01*
X-011900Y017076D01*
D02*
G37*
G36*
X-003232Y024600D02*
X-003233Y024614D01*
X-003238Y024627D01*
X-003245Y024638D01*
X-003256Y024648D01*
X-003270Y024656D01*
X-003286Y024663D01*
X-003306Y024668D01*
X-003329Y024672D01*
X-003354Y024674D01*
X-003383Y024675D01*
Y024825D01*
X-003354Y024826D01*
X-003329Y024828D01*
X-003306Y024832D01*
X-003286Y024837D01*
X-003270Y024844D01*
X-003256Y024852D01*
X-003245Y024862D01*
X-003238Y024873D01*
X-003233Y024886D01*
X-003232Y024900D01*
Y024600D01*
D02*
G37*
G36*
X-004004Y024886D02*
X-003999Y024873D01*
X-003992Y024862D01*
X-003981Y024852D01*
X-003968Y024844D01*
X-003951Y024837D01*
X-003932Y024832D01*
X-003909Y024828D01*
X-003884Y024826D01*
X-003855Y024825D01*
Y024675D01*
X-003884Y024674D01*
X-003909Y024672D01*
X-003932Y024668D01*
X-003951Y024663D01*
X-003968Y024656D01*
X-003981Y024648D01*
X-003992Y024638D01*
X-003999Y024627D01*
X-004004Y024614D01*
X-004005Y024600D01*
Y024900D01*
X-004004Y024886D01*
D02*
G37*
G36*
X-004930Y017396D02*
X-004924Y017381D01*
X-004915Y017367D01*
X-004903Y017355D01*
X-004886Y017346D01*
X-004866Y017337D01*
X-004843Y017331D01*
X-004816Y017327D01*
X-004785Y017324D01*
X-004750Y017323D01*
Y017143D01*
X-004785Y017142D01*
X-004816Y017139D01*
X-004843Y017135D01*
X-004866Y017129D01*
X-004886Y017121D01*
X-004903Y017111D01*
X-004915Y017099D01*
X-004924Y017085D01*
X-004930Y017070D01*
X-004932Y017053D01*
Y017413D01*
X-004930Y017396D01*
D02*
G37*
G36*
X-005784Y016959D02*
X-005792Y016956D01*
X-005800Y016951D01*
X-005806Y016944D01*
X-005812Y016935D01*
X-005816Y016923D01*
X-005820Y016910D01*
X-005822Y016895D01*
X-005824Y016878D01*
X-005824Y016859D01*
X-005924D01*
X-005925Y016878D01*
X-005926Y016895D01*
X-005929Y016910D01*
X-005932Y016923D01*
X-005937Y016935D01*
X-005942Y016944D01*
X-005949Y016951D01*
X-005956Y016956D01*
X-005965Y016959D01*
X-005974Y016960D01*
X-005774D01*
X-005784Y016959D01*
D02*
G37*
G36*
X-005358Y015593D02*
X-005318Y015558D01*
X-005301Y015546D01*
X-005286Y015537D01*
X-005273Y015532D01*
X-005261Y015530D01*
X-005252Y015531D01*
X-005245Y015535D01*
X-005239Y015543D01*
X-005330Y015353D01*
X-005327Y015363D01*
X-005326Y015374D01*
X-005327Y015386D01*
X-005331Y015399D01*
X-005337Y015412D01*
X-005345Y015427D01*
X-005356Y015442D01*
X-005369Y015459D01*
X-005384Y015476D01*
X-005402Y015495D01*
X-005381Y015615D01*
X-005358Y015593D01*
D02*
G37*
G36*
X-025998Y015645D02*
X-025998Y015640D01*
X-025999Y015621D01*
X-026000Y015494D01*
X-026100D01*
X-026103Y015647D01*
X-025997D01*
X-025998Y015645D01*
D02*
G37*
G36*
X-025780Y015319D02*
X-025902Y015179D01*
X-025932Y015137D01*
X-025956Y015098D01*
X-025976Y015061D01*
X-025989Y015027D01*
X-025997Y014996D01*
X-026000Y014967D01*
X-026100D01*
X-026103Y014996D01*
X-026111Y015027D01*
X-026124Y015061D01*
X-026144Y015098D01*
X-026168Y015137D01*
X-026198Y015179D01*
X-026274Y015270D01*
X-026320Y015319D01*
X-026372Y015371D01*
X-025728D01*
X-025780Y015319D01*
D02*
G37*
G36*
X-005823Y014956D02*
X-005831Y014953D01*
X-005839Y014948D01*
X-005845Y014941D01*
X-005851Y014932D01*
X-005855Y014921D01*
X-005859Y014908D01*
X-005861Y014892D01*
X-005863Y014875D01*
X-005863Y014856D01*
X-005963D01*
X-005964Y014875D01*
X-005965Y014892D01*
X-005968Y014908D01*
X-005971Y014921D01*
X-005976Y014932D01*
X-005981Y014941D01*
X-005988Y014948D01*
X-005995Y014953D01*
X-006004Y014956D01*
X-006013Y014957D01*
X-005813D01*
X-005823Y014956D01*
D02*
G37*
G36*
X-005450Y016722D02*
X-005448Y016705D01*
X-005446Y016690D01*
X-005442Y016677D01*
X-005437Y016666D01*
X-005432Y016657D01*
X-005426Y016650D01*
X-005418Y016645D01*
X-005410Y016642D01*
X-005400Y016641D01*
X-005600D01*
X-005591Y016642D01*
X-005582Y016645D01*
X-005574Y016650D01*
X-005568Y016657D01*
X-005562Y016666D01*
X-005558Y016677D01*
X-005555Y016690D01*
X-005552Y016705D01*
X-005551Y016722D01*
X-005550Y016741D01*
X-005450D01*
X-005450Y016722D01*
D02*
G37*
G36*
X-025973Y016397D02*
X-025965Y016363D01*
X-025953Y016327D01*
X-025935Y016289D01*
X-025913Y016250D01*
X-025886Y016209D01*
X-025854Y016166D01*
X-025775Y016076D01*
X-025728Y016029D01*
X-026372D01*
X-026325Y016076D01*
X-026246Y016166D01*
X-026214Y016209D01*
X-026187Y016250D01*
X-026165Y016289D01*
X-026147Y016327D01*
X-026135Y016363D01*
X-026127Y016397D01*
X-026125Y016430D01*
X-025975D01*
X-025973Y016397D01*
D02*
G37*
G36*
X-004004Y023136D02*
X-003999Y023123D01*
X-003992Y023112D01*
X-003981Y023102D01*
X-003968Y023094D01*
X-003951Y023087D01*
X-003932Y023082D01*
X-003909Y023078D01*
X-003884Y023076D01*
X-003855Y023075D01*
Y022925D01*
X-003884Y022924D01*
X-003909Y022922D01*
X-003932Y022918D01*
X-003951Y022913D01*
X-003968Y022906D01*
X-003981Y022898D01*
X-003992Y022888D01*
X-003999Y022877D01*
X-004004Y022864D01*
X-004005Y022850D01*
Y023150D01*
X-004004Y023136D01*
D02*
G37*
G36*
X-003232Y022850D02*
X-003233Y022864D01*
X-003238Y022877D01*
X-003245Y022888D01*
X-003256Y022898D01*
X-003270Y022906D01*
X-003286Y022913D01*
X-003306Y022918D01*
X-003329Y022922D01*
X-003354Y022924D01*
X-003383Y022925D01*
Y023075D01*
X-003354Y023076D01*
X-003329Y023078D01*
X-003306Y023082D01*
X-003286Y023087D01*
X-003270Y023094D01*
X-003256Y023102D01*
X-003245Y023112D01*
X-003238Y023123D01*
X-003233Y023136D01*
X-003232Y023150D01*
Y022850D01*
D02*
G37*
G36*
X-001278Y022947D02*
X-001283Y022930D01*
X-001283Y022911D01*
X-001278Y022889D01*
X-001268Y022865D01*
X-001252Y022839D01*
X-001232Y022809D01*
X-001206Y022777D01*
X-001140Y022706D01*
X-001267Y022579D01*
X-001304Y022614D01*
X-001370Y022671D01*
X-001400Y022691D01*
X-001426Y022707D01*
X-001451Y022717D01*
X-001472Y022722D01*
X-001491Y022722D01*
X-001508Y022717D01*
X-001522Y022707D01*
X-001268Y022960D01*
X-001278Y022947D01*
D02*
G37*
G36*
X-007006Y022261D02*
X-006990Y022248D01*
X-006973Y022237D01*
X-006954Y022227D01*
X-006935Y022219D01*
X-006914Y022212D01*
X-006892Y022207D01*
X-006870Y022203D01*
X-006846Y022201D01*
X-006821Y022200D01*
Y022000D01*
X-006846Y021999D01*
X-006870Y021997D01*
X-006892Y021993D01*
X-006914Y021988D01*
X-006935Y021981D01*
X-006954Y021973D01*
X-006973Y021963D01*
X-006990Y021952D01*
X-007006Y021939D01*
X-007021Y021925D01*
Y022275D01*
X-007006Y022261D01*
D02*
G37*
G36*
X-021270Y022288D02*
X-021262Y022269D01*
X-021251Y022253D01*
X-021238Y022239D01*
X-021222Y022227D01*
X-021204Y022217D01*
X-021183Y022210D01*
X-021160Y022204D01*
X-021135Y022201D01*
X-021107Y022200D01*
X-021146Y022000D01*
X-021196Y022000D01*
X-021456Y021985D01*
X-021470Y021982D01*
X-021276Y022308D01*
X-021270Y022288D01*
D02*
G37*
G36*
X-001126Y023294D02*
X-001165Y023253D01*
X-001227Y023180D01*
X-001250Y023147D01*
X-001267Y023117D01*
X-001278Y023090D01*
X-001284Y023066D01*
Y023045D01*
X-001278Y023027D01*
X-001267Y023011D01*
X-001550Y023294D01*
X-001534Y023283D01*
X-001516Y023277D01*
X-001495D01*
X-001471Y023283D01*
X-001444Y023294D01*
X-001414Y023311D01*
X-001382Y023334D01*
X-001346Y023362D01*
X-001267Y023435D01*
X-001126Y023294D01*
D02*
G37*
G36*
X-022553Y024970D02*
X-022586Y024969D01*
X-022617Y024967D01*
X-022647Y024963D01*
X-022675Y024958D01*
X-022701Y024950D01*
X-022725Y024941D01*
X-022748Y024930D01*
X-022769Y024918D01*
X-022789Y024903D01*
X-022807Y024887D01*
X-022913Y024993D01*
X-022897Y025011D01*
X-022882Y025031D01*
X-022870Y025052D01*
X-022859Y025075D01*
X-022850Y025099D01*
X-022842Y025125D01*
X-022837Y025153D01*
X-022833Y025183D01*
X-022831Y025214D01*
X-022830Y025247D01*
X-022553Y024970D01*
D02*
G37*
G36*
X-021176Y025483D02*
X-021194Y025463D01*
X-021210Y025443D01*
X-021224Y025422D01*
X-021237Y025400D01*
X-021247Y025378D01*
X-021256Y025354D01*
X-021262Y025330D01*
X-021267Y025305D01*
X-021269Y025279D01*
X-021270Y025253D01*
X-021547Y025530D01*
X-021521Y025531D01*
X-021495Y025533D01*
X-021470Y025538D01*
X-021446Y025544D01*
X-021422Y025553D01*
X-021400Y025563D01*
X-021378Y025576D01*
X-021357Y025590D01*
X-021337Y025606D01*
X-021317Y025624D01*
X-021176Y025483D01*
D02*
G37*
G36*
X-001572Y024457D02*
X-001588Y024468D01*
X-001606Y024474D01*
X-001627Y024474D01*
X-001651Y024468D01*
X-001678Y024457D01*
X-001708Y024439D01*
X-001740Y024417D01*
X-001776Y024388D01*
X-001855Y024314D01*
X-001997Y024456D01*
X-001957Y024497D01*
X-001894Y024571D01*
X-001872Y024603D01*
X-001855Y024633D01*
X-001843Y024660D01*
X-001837Y024684D01*
X-001837Y024705D01*
X-001843Y024723D01*
X-001854Y024739D01*
X-001572Y024457D01*
D02*
G37*
G36*
X-007379Y021925D02*
X-007394Y021939D01*
X-007410Y021952D01*
X-007427Y021963D01*
X-007446Y021973D01*
X-007465Y021981D01*
X-007486Y021988D01*
X-007508Y021993D01*
X-007530Y021997D01*
X-007554Y021999D01*
X-007579Y022000D01*
Y022200D01*
X-007554Y022201D01*
X-007530Y022203D01*
X-007508Y022207D01*
X-007486Y022212D01*
X-007465Y022219D01*
X-007446Y022227D01*
X-007427Y022237D01*
X-007410Y022248D01*
X-007394Y022261D01*
X-007379Y022275D01*
Y021925D01*
D02*
G37*
G36*
X-003232Y019350D02*
X-003233Y019364D01*
X-003238Y019377D01*
X-003245Y019388D01*
X-003256Y019398D01*
X-003270Y019406D01*
X-003286Y019413D01*
X-003306Y019418D01*
X-003329Y019422D01*
X-003354Y019424D01*
X-003383Y019425D01*
Y019575D01*
X-003354Y019576D01*
X-003329Y019578D01*
X-003306Y019582D01*
X-003286Y019587D01*
X-003270Y019594D01*
X-003256Y019602D01*
X-003245Y019612D01*
X-003238Y019623D01*
X-003233Y019636D01*
X-003232Y019650D01*
Y019350D01*
D02*
G37*
G36*
X-001398Y019206D02*
X-001413Y019201D01*
X-001427Y019194D01*
X-001439Y019183D01*
X-001449Y019170D01*
X-001457Y019154D01*
X-001463Y019135D01*
X-001467Y019112D01*
X-001470Y019087D01*
X-001471Y019059D01*
X-001651D01*
X-001652Y019087D01*
X-001655Y019112D01*
X-001659Y019135D01*
X-001665Y019154D01*
X-001674Y019170D01*
X-001683Y019183D01*
X-001695Y019194D01*
X-001709Y019201D01*
X-001724Y019206D01*
X-001741Y019207D01*
X-001381D01*
X-001398Y019206D01*
D02*
G37*
G36*
X-004004Y019636D02*
X-003999Y019623D01*
X-003992Y019612D01*
X-003981Y019602D01*
X-003968Y019594D01*
X-003951Y019587D01*
X-003932Y019582D01*
X-003909Y019578D01*
X-003884Y019576D01*
X-003855Y019575D01*
Y019425D01*
X-003884Y019424D01*
X-003909Y019422D01*
X-003932Y019418D01*
X-003951Y019413D01*
X-003968Y019406D01*
X-003981Y019398D01*
X-003992Y019388D01*
X-003999Y019377D01*
X-004004Y019364D01*
X-004005Y019350D01*
Y019650D01*
X-004004Y019636D01*
D02*
G37*
G36*
X-001140Y019794D02*
X-001175Y019757D01*
X-001231Y019691D01*
X-001252Y019662D01*
X-001267Y019635D01*
X-001277Y019611D01*
X-001282Y019589D01*
Y019570D01*
X-001277Y019554D01*
X-001267Y019540D01*
X-001522Y019794D01*
X-001508Y019784D01*
X-001491Y019779D01*
X-001472D01*
X-001450Y019784D01*
X-001426Y019794D01*
X-001399Y019809D01*
X-001370Y019830D01*
X-001338Y019855D01*
X-001267Y019921D01*
X-001140Y019794D01*
D02*
G37*
G36*
X-001146Y020835D02*
X-001114Y020798D01*
Y020250D01*
X-001387Y019977D01*
X-001418Y019948D01*
X-001443Y019928D01*
X-001461Y019915D01*
X-001516D01*
X-001522Y019916D01*
X-001527Y019915D01*
X-001976D01*
Y019085D01*
X-001903D01*
X-001884Y019039D01*
X-003476Y017447D01*
X-004789D01*
X-004800Y017448D01*
X-004809Y017450D01*
Y017629D01*
X-005327D01*
Y017828D01*
X-004728Y018427D01*
X-004236D01*
X-004219Y018377D01*
X-004252Y018352D01*
X-004304Y018284D01*
X-004337Y018205D01*
X-004341Y018170D01*
X-003699D01*
X-003703Y018205D01*
X-003736Y018284D01*
X-003788Y018352D01*
X-003821Y018377D01*
X-003804Y018427D01*
X-002800D01*
X-002734Y018440D01*
X-002677Y018477D01*
X-002177Y018977D01*
X-002140Y019034D01*
X-002127Y019100D01*
Y020439D01*
X-001750Y020816D01*
X-001735Y020830D01*
X-001729Y020835D01*
X-001146D01*
D02*
G37*
G36*
X-001714Y020957D02*
X-001721Y020963D01*
X-001730Y020965D01*
X-001741Y020965D01*
X-001753Y020962D01*
X-001766Y020957D01*
X-001781Y020948D01*
X-001798Y020936D01*
X-001815Y020922D01*
X-001855Y020885D01*
X-001926Y020956D01*
X-001906Y020977D01*
X-001875Y021013D01*
X-001863Y021030D01*
X-001855Y021045D01*
X-001849Y021058D01*
X-001846Y021070D01*
X-001846Y021081D01*
X-001848Y021090D01*
X-001854Y021097D01*
X-001714Y020957D01*
D02*
G37*
%LPC*%
G36*
X-003699Y018070D02*
X-003970D01*
Y017799D01*
X-003935Y017803D01*
X-003856Y017836D01*
X-003788Y017888D01*
X-003736Y017956D01*
X-003703Y018035D01*
X-003699Y018070D01*
D02*
G37*
G36*
X-004070D02*
X-004341D01*
X-004337Y018035D01*
X-004304Y017956D01*
X-004252Y017888D01*
X-004184Y017836D01*
X-004105Y017803D01*
X-004070Y017799D01*
Y018070D01*
D02*
G37*
%LPD*%
D11*
X-007800Y005990D02*
Y009100D01*
D12*
X-026050Y021750D02*
X-022550Y025250D01*
X-026050Y015700D02*
Y021750D01*
X-022550Y026250D02*
X-021850Y026950D01*
X-019450D01*
X-024160Y032390D02*
X-023340D01*
X-022550Y031600D01*
Y026250D02*
Y031600D01*
X-004250Y023000D02*
X-002939D01*
X-004250Y024750D02*
X-002939D01*
X-004250Y021250D02*
X-002939D01*
X-004250Y019500D02*
X-002939D01*
D13*
X-006400D02*
X-005077D01*
X-007600Y018300D02*
X-006400Y019500D01*
X-007600Y016417D02*
Y018300D01*
X-012100Y017100D02*
X-009380Y014380D01*
X-007560D02*
X-007196Y014744D01*
X-009380Y014380D02*
X-007560D01*
X-007196Y014744D02*
Y015250D01*
X-008023D02*
Y017234D01*
D16*
X-021550Y026250D02*
D03*
X-022550D02*
D03*
X-021550Y025250D02*
D03*
X-022550D02*
D03*
X-021550Y024250D02*
D03*
X-022550D02*
D03*
X-021550Y023250D02*
D03*
X-022550D02*
D03*
X-021550Y022250D02*
D03*
X-022550D02*
D03*
X-021550Y021250D02*
D03*
X-022550D02*
D03*
X-021550Y020250D02*
D03*
X-022550D02*
D03*
Y019250D02*
D03*
D17*
X-021550D02*
D03*
D18*
X-025050Y015700D02*
D03*
X-026050D02*
D03*
X-026160Y031390D02*
D03*
Y032390D02*
D03*
X-025160D02*
D03*
X-024160D02*
D03*
Y031390D02*
D03*
X-025160D02*
D03*
D19*
X-007800Y005990D02*
D03*
X-002800D02*
D03*
D20*
X-012100Y017100D02*
D03*
X-019450Y026950D02*
D03*
D21*
X-004020Y018120D02*
D03*
D22*
X-007200Y022100D02*
D03*
D23*
X-007974Y017283D02*
D03*
X-007226D02*
D03*
X-007600Y016417D02*
D03*
X-005874Y017233D02*
D03*
X-005126D02*
D03*
X-005500Y016367D02*
D03*
D24*
X-004250Y024750D02*
D03*
X-005077D02*
D03*
X-004250Y023000D02*
D03*
X-005077D02*
D03*
X-007196Y015250D02*
D03*
X-008023D02*
D03*
X-005087D02*
D03*
X-005913D02*
D03*
X-004250Y021250D02*
D03*
X-005077D02*
D03*
X-004250Y019500D02*
D03*
X-005077D02*
D03*
D25*
X-002939D02*
D03*
X-001561D02*
D03*
X-002939Y021250D02*
D03*
X-001561D02*
D03*
X-002939Y023000D02*
D03*
X-001561D02*
D03*
X-002939Y024750D02*
D03*
X-001561D02*
D03*
D26*
X-002300Y020511D02*
X-001561Y021250D01*
X-002300Y019100D02*
Y020511D01*
X-002800Y018600D02*
X-002300Y019100D01*
X-004800Y018600D02*
X-002800D01*
X-005500Y017900D02*
X-004800Y018600D01*
X-005500Y016367D02*
Y017900D01*
X-005913Y014587D02*
Y015250D01*
X-006800Y013700D02*
X-005913Y014587D01*
X-025060Y013700D02*
X-006800D01*
X-026050Y014690D02*
X-025060Y013700D01*
X-026050Y014690D02*
Y015700D01*
X-005874Y016037D02*
Y017233D01*
Y016037D02*
X-005087Y015250D01*
X-008023Y017234D02*
X-007974Y017283D01*
D27*
X-021550Y022250D02*
X-021400Y022100D01*
X-007200D01*
X-021550Y025250D02*
X-021070Y025730D01*
X-001430D01*
X-007200Y022100D02*
X-002700D01*
X-001430Y025730D02*
X-000950Y025250D01*
Y023611D02*
Y025250D01*
X-001561Y023000D02*
X-000950Y023611D01*
X-002700Y022100D02*
X-002250Y022550D01*
Y024061D01*
X-001561Y024750D01*
D28*
Y019059D02*
Y019500D01*
X-003387Y017233D02*
X-001561Y019059D01*
X-005126Y017233D02*
X-003387D01*
X-001561Y023000D02*
X-000900Y022339D01*
Y020161D02*
Y022339D01*
X-001561Y019500D02*
X-000900Y020161D01*
M02*
