M48
;Layer_Color=9474304
;FILE_FORMAT=2:4
INCH
;TYPE=PLATED
T1F00S00C0.0180
T2F00S00C0.0200
T3F00S00C0.0280
T4F00S00C0.0340
T5F00S00C0.0700
T6F00S00C0.0900
;TYPE=NON_PLATED
T7F00S00C0.1260
%
T01
X-004020Y018120
X-019450Y026950
T02
X-012100Y017100
T03
X-007200Y022100
T04
X-022550Y019250
Y020250
Y021250
Y022250
Y023250
Y024250
Y025250
Y026250
X-021550
Y025250
Y024250
Y023250
Y022250
Y021250
Y020250
Y019250
T05
X-026050Y015700
X-025050
X-025160Y031390
X-026160
X-024160
Y032390
X-025160
X-026160
T06
X-007800Y005990
X-002800
T07
X-032050Y010615
X-016050
Y030115
X-032050
M30
