G04 Layer_Color=16711935*
%FSAX24Y24*%
%MOIN*%
G70*
G01*
G75*
%ADD33C,0.0640*%
%ADD34R,0.0640X0.0640*%
%ADD35C,0.1000*%
%ADD36O,0.1680X0.1980*%
%ADD37C,0.0080*%
%ADD38R,0.0474X0.0631*%
%ADD39R,0.0572X0.0671*%
%ADD40R,0.0671X0.0671*%
D33*
X-021550Y026250D02*
D03*
X-022550D02*
D03*
X-021550Y025250D02*
D03*
X-022550D02*
D03*
X-021550Y024250D02*
D03*
X-022550D02*
D03*
X-021550Y023250D02*
D03*
X-022550D02*
D03*
X-021550Y022250D02*
D03*
X-022550D02*
D03*
X-021550Y021250D02*
D03*
X-022550D02*
D03*
X-021550Y020250D02*
D03*
X-022550D02*
D03*
Y019250D02*
D03*
D34*
X-021550D02*
D03*
D35*
X-025050Y015700D02*
D03*
X-026050D02*
D03*
X-026160Y031390D02*
D03*
Y032390D02*
D03*
X-025160D02*
D03*
X-024160D02*
D03*
Y031390D02*
D03*
X-025160D02*
D03*
D36*
X-007800Y005990D02*
D03*
X-002800D02*
D03*
D37*
X-016050Y030115D02*
D03*
X-032050D02*
D03*
Y010615D02*
D03*
X-016050D02*
D03*
D38*
X-007974Y017283D02*
D03*
X-007226D02*
D03*
X-007600Y016417D02*
D03*
X-005874Y017233D02*
D03*
X-005126D02*
D03*
X-005500Y016367D02*
D03*
D39*
X-004250Y024750D02*
D03*
X-005077D02*
D03*
X-004250Y023000D02*
D03*
X-005077D02*
D03*
X-007196Y015250D02*
D03*
X-008023D02*
D03*
X-005087D02*
D03*
X-005913D02*
D03*
X-004250Y021250D02*
D03*
X-005077D02*
D03*
X-004250Y019500D02*
D03*
X-005077D02*
D03*
D40*
X-002939D02*
D03*
X-001561D02*
D03*
X-002939Y021250D02*
D03*
X-001561D02*
D03*
X-002939Y023000D02*
D03*
X-001561D02*
D03*
X-002939Y024750D02*
D03*
X-001561D02*
D03*
M02*
