G04 Layer_Color=65535*
%FSAX24Y24*%
%MOIN*%
G70*
G01*
G75*
%ADD13C,0.0120*%
%ADD26C,0.0100*%
%ADD29C,0.0079*%
%ADD30C,0.0070*%
%ADD31C,0.0080*%
D13*
X-007800Y002581D02*
X-008443D01*
X-002581Y002903D02*
Y002260D01*
X-002260Y002581D02*
X-002903D01*
X-028450Y031600D02*
Y031100D01*
X-027988Y031481D02*
X-028012Y031528D01*
X-028060Y031576D01*
X-028107Y031600D01*
X-028202D01*
X-028250Y031576D01*
X-028298Y031528D01*
X-028321Y031481D01*
X-028345Y031409D01*
Y031290D01*
X-028321Y031219D01*
X-028298Y031171D01*
X-028250Y031124D01*
X-028202Y031100D01*
X-028107D01*
X-028060Y031124D01*
X-028012Y031171D01*
X-027988Y031219D01*
X-027514Y031528D02*
X-027562Y031576D01*
X-027634Y031600D01*
X-027729D01*
X-027800Y031576D01*
X-027848Y031528D01*
Y031481D01*
X-027824Y031433D01*
X-027800Y031409D01*
X-027753Y031386D01*
X-027610Y031338D01*
X-027562Y031314D01*
X-027538Y031290D01*
X-027514Y031243D01*
Y031171D01*
X-027562Y031124D01*
X-027634Y031100D01*
X-027729D01*
X-027800Y031124D01*
X-027848Y031171D01*
X-027403Y031338D02*
X-027188D01*
X-027117Y031362D01*
X-027093Y031386D01*
X-027069Y031433D01*
Y031505D01*
X-027093Y031552D01*
X-027117Y031576D01*
X-027188Y031600D01*
X-027403D01*
Y031100D01*
X-027000Y030505D02*
X-026952Y030528D01*
X-026881Y030600D01*
Y030100D01*
D26*
X-023050Y026750D02*
X-021050D01*
X-023050Y018750D02*
Y026750D01*
Y018750D02*
X-021050D01*
Y026750D01*
X-012833Y011750D02*
X-013100D01*
Y011550D01*
X-012967D01*
X-013100D01*
Y011350D01*
X-012700D02*
X-012567D01*
X-012633D01*
Y011750D01*
X-012700Y011683D01*
D29*
X-013432Y009919D02*
X-012369D01*
X-013432Y011081D02*
X-012369D01*
X-029233Y016065D02*
Y015715D01*
X-029350Y016065D02*
X-029117D01*
X-028858D02*
X-029075D01*
Y015715D01*
X-028858D01*
X-029075Y015898D02*
X-028942D01*
X-028567Y016015D02*
X-028600Y016048D01*
X-028650Y016065D01*
X-028717D01*
X-028767Y016048D01*
X-028800Y016015D01*
Y015982D01*
X-028783Y015948D01*
X-028767Y015932D01*
X-028733Y015915D01*
X-028633Y015882D01*
X-028600Y015865D01*
X-028584Y015848D01*
X-028567Y015815D01*
Y015765D01*
X-028600Y015732D01*
X-028650Y015715D01*
X-028717D01*
X-028767Y015732D01*
X-028800Y015765D01*
X-028372Y016065D02*
Y015715D01*
X-028489Y016065D02*
X-028255D01*
X-027939D02*
Y015715D01*
Y016065D02*
X-027805Y015715D01*
X-027672Y016065D02*
X-027805Y015715D01*
X-027672Y016065D02*
Y015715D01*
X-027472Y016065D02*
X-027505Y016048D01*
X-027539Y016015D01*
X-027555Y015982D01*
X-027572Y015932D01*
Y015848D01*
X-027555Y015798D01*
X-027539Y015765D01*
X-027505Y015732D01*
X-027472Y015715D01*
X-027405D01*
X-027372Y015732D01*
X-027339Y015765D01*
X-027322Y015798D01*
X-027305Y015848D01*
Y015932D01*
X-027322Y015982D01*
X-027339Y016015D01*
X-027372Y016048D01*
X-027405Y016065D01*
X-027472D01*
X-027224D02*
Y015715D01*
Y016065D02*
X-027107D01*
X-027057Y016048D01*
X-027024Y016015D01*
X-027007Y015982D01*
X-026991Y015932D01*
Y015848D01*
X-027007Y015798D01*
X-027024Y015765D01*
X-027057Y015732D01*
X-027107Y015715D01*
X-027224D01*
X-026696Y016065D02*
X-026912D01*
Y015715D01*
X-026696D01*
X-026912Y015898D02*
X-026779D01*
D30*
X-024050Y026050D02*
X-023917D01*
X-023983D01*
Y026450D01*
X-024050Y026383D01*
X-023450Y026450D02*
X-023583Y026383D01*
X-023717Y026250D01*
Y026117D01*
X-023650Y026050D01*
X-023517D01*
X-023450Y026117D01*
Y026183D01*
X-023517Y026250D01*
X-023717D01*
X-020550Y026100D02*
X-020427D01*
X-020488D01*
Y026470D01*
X-020550Y026408D01*
X-019995Y026470D02*
X-020242D01*
Y026285D01*
X-020118Y026347D01*
X-020057D01*
X-019995Y026285D01*
Y026162D01*
X-020057Y026100D01*
X-020180D01*
X-020242Y026162D01*
X-023683Y019150D02*
X-023950D01*
X-023683Y019417D01*
Y019483D01*
X-023750Y019550D01*
X-023883D01*
X-023950Y019483D01*
X-020450Y019050D02*
X-020317D01*
X-020383D01*
Y019450D01*
X-020450Y019383D01*
D31*
X-021433Y027400D02*
X-021567D01*
X-021500D01*
Y027067D01*
X-021567Y027000D01*
X-021633D01*
X-021700Y027067D01*
X-021300Y027000D02*
X-021167D01*
X-021233D01*
Y027400D01*
X-021300Y027333D01*
X-019450Y023387D02*
Y023088D01*
Y023387D02*
X-019321D01*
X-019279Y023373D01*
X-019264Y023359D01*
X-019250Y023330D01*
Y023302D01*
X-019264Y023273D01*
X-019279Y023259D01*
X-019321Y023245D01*
X-019450D01*
X-019350D02*
X-019250Y023088D01*
X-018997Y023387D02*
X-019183D01*
Y023088D01*
X-018997D01*
X-019183Y023245D02*
X-019069D01*
X-018947Y023387D02*
Y023088D01*
X-018776D01*
X-018514D02*
X-018629Y023387D01*
X-018743Y023088D01*
X-018700Y023188D02*
X-018557D01*
X-018444Y023387D02*
X-018330Y023245D01*
Y023088D01*
X-018216Y023387D02*
X-018330Y023245D01*
X-019236Y021316D02*
X-019250Y021345D01*
X-019279Y021373D01*
X-019307Y021387D01*
X-019364D01*
X-019393Y021373D01*
X-019421Y021345D01*
X-019436Y021316D01*
X-019450Y021273D01*
Y021202D01*
X-019436Y021159D01*
X-019421Y021130D01*
X-019393Y021102D01*
X-019364Y021088D01*
X-019307D01*
X-019279Y021102D01*
X-019250Y021130D01*
X-019236Y021159D01*
Y021202D01*
X-019307D02*
X-019236D01*
X-019167Y021387D02*
Y021088D01*
Y021387D02*
X-018967Y021088D01*
Y021387D02*
Y021088D01*
X-018884Y021387D02*
Y021088D01*
Y021387D02*
X-018784D01*
X-018742Y021373D01*
X-018713Y021345D01*
X-018699Y021316D01*
X-018684Y021273D01*
Y021202D01*
X-018699Y021159D01*
X-018713Y021130D01*
X-018742Y021102D01*
X-018784Y021088D01*
X-018884D01*
X-019279Y025387D02*
X-019421D01*
X-019436Y025259D01*
X-019421Y025273D01*
X-019379Y025287D01*
X-019336D01*
X-019293Y025273D01*
X-019264Y025245D01*
X-019250Y025202D01*
Y025173D01*
X-019264Y025130D01*
X-019293Y025102D01*
X-019336Y025088D01*
X-019379D01*
X-019421Y025102D01*
X-019436Y025116D01*
X-019450Y025145D01*
X-019183Y025387D02*
X-019069Y025088D01*
X-018954Y025387D02*
X-019069Y025088D01*
X-019414Y024500D02*
X-019443Y024486D01*
X-019471Y024457D01*
X-019486Y024429D01*
X-019500Y024386D01*
Y024314D01*
X-019486Y024271D01*
X-019471Y024243D01*
X-019443Y024214D01*
X-019414Y024200D01*
X-019357D01*
X-019329Y024214D01*
X-019300Y024243D01*
X-019286Y024271D01*
X-019271Y024314D01*
Y024386D01*
X-019286Y024429D01*
X-019300Y024457D01*
X-019329Y024486D01*
X-019357Y024500D01*
X-019414D01*
X-019201D02*
Y024200D01*
X-019002Y024500D02*
X-019201Y024300D01*
X-019130Y024371D02*
X-019002Y024200D01*
X-018720Y024429D02*
X-018734Y024457D01*
X-018763Y024486D01*
X-018792Y024500D01*
X-018849D01*
X-018877Y024486D01*
X-018906Y024457D01*
X-018920Y024429D01*
X-018934Y024386D01*
Y024314D01*
X-018920Y024271D01*
X-018906Y024243D01*
X-018877Y024214D01*
X-018849Y024200D01*
X-018792D01*
X-018763Y024214D01*
X-018734Y024243D01*
X-018720Y024271D01*
X-025600Y025400D02*
Y025100D01*
X-025700Y025400D02*
X-025500D01*
X-025279D02*
X-025464D01*
Y025100D01*
X-025279D01*
X-025464Y025257D02*
X-025350D01*
X-025029Y025357D02*
X-025057Y025386D01*
X-025100Y025400D01*
X-025157D01*
X-025200Y025386D01*
X-025229Y025357D01*
Y025329D01*
X-025214Y025300D01*
X-025200Y025286D01*
X-025172Y025271D01*
X-025086Y025243D01*
X-025057Y025229D01*
X-025043Y025214D01*
X-025029Y025186D01*
Y025143D01*
X-025057Y025114D01*
X-025100Y025100D01*
X-025157D01*
X-025200Y025114D01*
X-025229Y025143D01*
X-024862Y025400D02*
Y025100D01*
X-024962Y025400D02*
X-024762D01*
X-025826Y024500D02*
Y024200D01*
Y024500D02*
X-025726D01*
X-025683Y024486D01*
X-025654Y024457D01*
X-025640Y024429D01*
X-025626Y024386D01*
Y024314D01*
X-025640Y024271D01*
X-025654Y024243D01*
X-025683Y024214D01*
X-025726Y024200D01*
X-025826D01*
X-025473Y024500D02*
X-025501Y024486D01*
X-025530Y024457D01*
X-025544Y024429D01*
X-025559Y024386D01*
Y024314D01*
X-025544Y024271D01*
X-025530Y024243D01*
X-025501Y024214D01*
X-025473Y024200D01*
X-025416D01*
X-025387Y024214D01*
X-025359Y024243D01*
X-025344Y024271D01*
X-025330Y024314D01*
Y024386D01*
X-025344Y024429D01*
X-025359Y024457D01*
X-025387Y024486D01*
X-025416Y024500D01*
X-025473D01*
X-025174D02*
X-025203Y024486D01*
X-025232Y024457D01*
X-025246Y024429D01*
X-025260Y024386D01*
Y024314D01*
X-025246Y024271D01*
X-025232Y024243D01*
X-025203Y024214D01*
X-025174Y024200D01*
X-025117D01*
X-025089Y024214D01*
X-025060Y024243D01*
X-025046Y024271D01*
X-025032Y024314D01*
Y024386D01*
X-025046Y024429D01*
X-025060Y024457D01*
X-025089Y024486D01*
X-025117Y024500D01*
X-025174D01*
X-024962D02*
Y024200D01*
Y024500D02*
X-024833D01*
X-024790Y024486D01*
X-024776Y024471D01*
X-024762Y024443D01*
Y024414D01*
X-024776Y024386D01*
X-024790Y024371D01*
X-024833Y024357D01*
X-024962D01*
X-024862D02*
X-024762Y024200D01*
X-019450Y026400D02*
Y026100D01*
Y026400D02*
X-019336Y026100D01*
X-019221Y026400D02*
X-019336Y026100D01*
X-019221Y026400D02*
Y026100D01*
X-018922Y026329D02*
X-018936Y026357D01*
X-018964Y026386D01*
X-018993Y026400D01*
X-019050D01*
X-019079Y026386D01*
X-019107Y026357D01*
X-019122Y026329D01*
X-019136Y026286D01*
Y026214D01*
X-019122Y026171D01*
X-019107Y026143D01*
X-019079Y026114D01*
X-019050Y026100D01*
X-018993D01*
X-018964Y026114D01*
X-018936Y026143D01*
X-018922Y026171D01*
X-018837Y026400D02*
Y026100D01*
X-018666D01*
X-018633Y026400D02*
Y026100D01*
Y026400D02*
X-018504D01*
X-018462Y026386D01*
X-018447Y026371D01*
X-018433Y026343D01*
Y026314D01*
X-018447Y026286D01*
X-018462Y026271D01*
X-018504Y026257D01*
X-018633D01*
X-018533D02*
X-018433Y026100D01*
X-025330Y021005D02*
X-025444Y021305D01*
X-025559Y021005D01*
X-025516Y021105D02*
X-025373D01*
X-025046Y021233D02*
X-025060Y021262D01*
X-025089Y021290D01*
X-025117Y021305D01*
X-025174D01*
X-025203Y021290D01*
X-025232Y021262D01*
X-025246Y021233D01*
X-025260Y021190D01*
Y021119D01*
X-025246Y021076D01*
X-025232Y021047D01*
X-025203Y021019D01*
X-025174Y021005D01*
X-025117D01*
X-025089Y021019D01*
X-025060Y021047D01*
X-025046Y021076D01*
X-024947Y021233D02*
Y021247D01*
X-024933Y021276D01*
X-024919Y021290D01*
X-024890Y021305D01*
X-024833D01*
X-024804Y021290D01*
X-024790Y021276D01*
X-024776Y021247D01*
Y021219D01*
X-024790Y021190D01*
X-024819Y021147D01*
X-024962Y021005D01*
X-024762D01*
X-025202Y022005D02*
X-025316Y022305D01*
X-025430Y022005D01*
X-025387Y022105D02*
X-025244D01*
X-024917Y022233D02*
X-024932Y022262D01*
X-024960Y022290D01*
X-024989Y022305D01*
X-025046D01*
X-025074Y022290D01*
X-025103Y022262D01*
X-025117Y022233D01*
X-025132Y022190D01*
Y022119D01*
X-025117Y022076D01*
X-025103Y022048D01*
X-025074Y022019D01*
X-025046Y022005D01*
X-024989D01*
X-024960Y022019D01*
X-024932Y022048D01*
X-024917Y022076D01*
X-024833Y022247D02*
X-024804Y022262D01*
X-024762Y022305D01*
Y022005D01*
X-019450Y020487D02*
Y020188D01*
Y020487D02*
X-019321D01*
X-019279Y020473D01*
X-019264Y020459D01*
X-019250Y020430D01*
Y020402D01*
X-019264Y020373D01*
X-019279Y020359D01*
X-019321Y020345D01*
X-019450D01*
X-019350D02*
X-019250Y020188D01*
X-018997Y020487D02*
X-019183D01*
Y020188D01*
X-018997D01*
X-019183Y020345D02*
X-019069D01*
X-018947Y020487D02*
Y020188D01*
X-018776D01*
X-018514D02*
X-018629Y020487D01*
X-018743Y020188D01*
X-018700Y020288D02*
X-018557D01*
X-018444Y020487D02*
X-018330Y020345D01*
Y020188D01*
X-018216Y020487D02*
X-018330Y020345D01*
X-025543Y023400D02*
Y023100D01*
Y023400D02*
X-025414D01*
X-025371Y023386D01*
X-025357Y023371D01*
X-025343Y023343D01*
Y023314D01*
X-025357Y023286D01*
X-025371Y023271D01*
X-025414Y023257D01*
X-025543D01*
X-025443D02*
X-025343Y023100D01*
X-025276Y023400D02*
Y023100D01*
Y023400D02*
X-025162Y023100D01*
X-025047Y023400D02*
X-025162Y023100D01*
X-025047Y023400D02*
Y023100D01*
X-024862Y023400D02*
Y023100D01*
X-024962Y023400D02*
X-024762D01*
X-019236Y019316D02*
X-019250Y019345D01*
X-019279Y019373D01*
X-019307Y019387D01*
X-019364D01*
X-019393Y019373D01*
X-019421Y019345D01*
X-019436Y019316D01*
X-019450Y019273D01*
Y019202D01*
X-019436Y019159D01*
X-019421Y019130D01*
X-019393Y019102D01*
X-019364Y019088D01*
X-019307D01*
X-019279Y019102D01*
X-019250Y019130D01*
X-019236Y019159D01*
Y019202D01*
X-019307D02*
X-019236D01*
X-019167Y019387D02*
Y019088D01*
Y019387D02*
X-018967Y019088D01*
Y019387D02*
Y019088D01*
X-018884Y019387D02*
Y019088D01*
Y019387D02*
X-018784D01*
X-018742Y019373D01*
X-018713Y019345D01*
X-018699Y019316D01*
X-018684Y019273D01*
Y019202D01*
X-018699Y019159D01*
X-018713Y019130D01*
X-018742Y019102D01*
X-018784Y019088D01*
X-018884D01*
X-019450Y022387D02*
Y022088D01*
Y022387D02*
X-019321D01*
X-019279Y022373D01*
X-019264Y022359D01*
X-019250Y022330D01*
Y022302D01*
X-019264Y022273D01*
X-019279Y022259D01*
X-019321Y022245D01*
X-019450D02*
X-019321D01*
X-019279Y022230D01*
X-019264Y022216D01*
X-019250Y022188D01*
Y022145D01*
X-019264Y022116D01*
X-019279Y022102D01*
X-019321Y022088D01*
X-019450D01*
X-018954D02*
X-019069Y022387D01*
X-019183Y022088D01*
X-019140Y022188D02*
X-018997D01*
X-018784Y022387D02*
Y022088D01*
X-018884Y022387D02*
X-018684D01*
X-025250Y019333D02*
X-025264Y019362D01*
X-025293Y019390D01*
X-025322Y019405D01*
X-025379D01*
X-025407Y019390D01*
X-025436Y019362D01*
X-025450Y019333D01*
X-025464Y019290D01*
Y019219D01*
X-025450Y019176D01*
X-025436Y019147D01*
X-025407Y019119D01*
X-025379Y019105D01*
X-025322D01*
X-025293Y019119D01*
X-025264Y019147D01*
X-025250Y019176D01*
X-025166Y019405D02*
Y019105D01*
X-024994D01*
X-024962Y019405D02*
Y019105D01*
X-024762Y019405D02*
X-024962Y019205D01*
X-024890Y019276D02*
X-024762Y019105D01*
X-025791Y020305D02*
Y020005D01*
Y020305D02*
X-025691D01*
X-025649Y020290D01*
X-025620Y020262D01*
X-025606Y020233D01*
X-025591Y020190D01*
Y020119D01*
X-025606Y020076D01*
X-025620Y020048D01*
X-025649Y020019D01*
X-025691Y020005D01*
X-025791D01*
X-025296D02*
X-025410Y020305D01*
X-025524Y020005D01*
X-025481Y020105D02*
X-025339D01*
X-025126Y020305D02*
Y020005D01*
X-025226Y020305D02*
X-025026D01*
X-024762Y020005D02*
X-024876Y020305D01*
X-024990Y020005D01*
X-024947Y020105D02*
X-024804D01*
X-025496Y026317D02*
X-025382Y026017D01*
X-025267Y026317D02*
X-025382Y026017D01*
X-025229Y026317D02*
Y026017D01*
Y026317D02*
X-025129D01*
X-025086Y026303D01*
X-025057Y026274D01*
X-025043Y026246D01*
X-025029Y026203D01*
Y026131D01*
X-025043Y026089D01*
X-025057Y026060D01*
X-025086Y026031D01*
X-025129Y026017D01*
X-025229D01*
X-024962Y026317D02*
Y026017D01*
Y026317D02*
X-024862D01*
X-024819Y026303D01*
X-024790Y026274D01*
X-024776Y026246D01*
X-024762Y026203D01*
Y026131D01*
X-024776Y026089D01*
X-024790Y026060D01*
X-024819Y026031D01*
X-024862Y026017D01*
X-024962D01*
M02*
